<?xml version="1.0" encoding="utf-8"?>
<!-- Generator: Adobe Illustrator 19.2.1, SVG Export Plug-In . SVG Version: 6.00 Build 0)  -->
<svg version="1.1" id="layer" xmlns="http://www.w3.org/2000/svg" xmlns:xlink="http://www.w3.org/1999/xlink" x="0px" y="0px"
	 viewBox="0 0 652 652" style="enable-background:new 0 0 652 652;" xml:space="preserve">
<style type="text/css">
	.st0{fill:#134A92;}
	.st1{fill:#124A8F;}
	.st2{fill:#0078BC;}
	.st3{fill:#007ABD;}
	.st4{fill:#00B8E6;}
	.st5{fill:#01B7E6;}
	.st6{fill:#252E6D;}
	.st7{fill:#252E6C;}
	.st8{fill:#124B92;}
	.st9{fill:#0079BE;}
	.st10{fill:#02B7E6;}
	.st11{fill:#232D6B;}
</style>
<rect x="97.8" y="261.4" class="st0" width="28.7" height="23.3"/>
<rect x="127.6" y="237.1" class="st1" width="28.7" height="23.3"/>
<rect x="63.9" y="275.4" transform="matrix(0.7071 -0.7071 0.7071 0.7071 -180.0579 139.432)" class="st2" width="28.7" height="23.3"/>
<rect x="67.8" y="237.3" transform="matrix(0.7071 -0.7071 0.7071 0.7071 -151.9491 130.9835)" class="st3" width="28.7" height="23.3"/>
<rect x="52.6" y="306.7" class="st4" width="23.3" height="28.7"/>
<rect x="28.4" y="277" class="st5" width="23.3" height="28.7"/>
<polygon class="st6" points="96.7,356.9 76.4,336.6 59.9,353 80.2,373.3 "/>
<rect x="28.5" y="336.7" transform="matrix(0.7071 -0.7071 0.7071 0.7071 -236.5076 131.2185)" class="st7" width="23.3" height="28.7"/>
<polygon class="st0" points="126.6,357.4 97.8,357.4 97.8,380.6 126.6,380.6 "/>
<rect x="68.1" y="381.6" class="st8" width="28.7" height="23.3"/>
<rect x="127.9" y="381.5" transform="matrix(0.7071 -0.7071 0.7071 0.7071 -236.2896 215.7404)" class="st9" width="28.7" height="23.3"/>
<rect x="131.8" y="343.3" transform="matrix(0.707 -0.7072 0.7072 0.707 -208.1894 207.3472)" class="st2" width="28.7" height="23.3"/>
<rect x="172.8" y="336.4" class="st10" width="23.3" height="28.7"/>
<rect x="148.6" y="306.6" class="st4" width="23.3" height="28.7"/>
<polygon class="st11" points="202.7,292.9 182.4,272.6 165.9,289 186.2,309.3 "/>
<rect x="134.5" y="272.7" transform="matrix(0.7071 -0.7071 0.7071 0.7071 -160.1889 187.4158)" class="st6" width="23.3" height="28.7"/>
<path d="M241,303.7h2.1c2.3,0,3.2-0.5,3.2-2.8v-26.9c0-2.3-0.9-2.8-3.2-2.8H241v-2.5h16.3v2.5h-2.1c-2.3,0-3.3,0.5-3.3,2.8v11.7
	h15.9v-11.7c0-2.3-0.9-2.8-3.2-2.8h-2.1v-2.5h16.3v2.5h-2.1c-2.3,0-3.2,0.5-3.2,2.8v26.9c0,2.3,0.9,2.8,3.2,2.8h2.1v2.5h-16.3v-2.5
	h2.1c2.3,0,3.2-0.5,3.2-2.8v-12.1h-15.9v12.1c0,2.3,0.9,2.8,3.3,2.8h2.1v2.5H241V303.7z"/>
<path d="M282.3,300.8c0-4.8,4.6-7.8,15.4-10.1v-0.8c0-5.2-1.6-7.3-5.4-7.3c-1.5-0.1-2.9,0.3-4.1,1.1c-0.2,0.3-0.3,0.7,0.1,0.9
	c1.5,0.8,2.1,2.6,1.4,4.1c-0.5,1.1-1.7,1.8-2.9,1.7c-1.8,0.1-3.3-1.3-3.3-3.1c0-0.1,0-0.3,0-0.4c0-3.8,4-6.5,9.8-6.5
	s9.4,2.9,9.4,9.2v12.3c0,1.4,0.5,2,1.3,2c0.7-0.1,1.4-0.5,1.8-1l1.1,1.3c-1.5,1.7-2.7,2.5-4.6,2.5c-2.3,0-4.1-1.8-4.1-5.2h-0.3
	c-1.7,3.3-5,5.3-8.7,5.4C285.3,306.8,282.3,304.8,282.3,300.8z M297.7,295.8v-3c-8.2,1.6-10,4.1-10,7.1c0,2.1,1.1,3.7,3.3,3.7
	C294.1,303.6,297.7,300.8,297.7,295.8z"/>
<path d="M308.3,293.7c-0.3-7.2,5.4-13.3,12.6-13.6c0.1,0,0.1,0,0.2,0c4.9,0,8.8,3.1,8.8,7.1c0,2.7-1.6,4.1-3.6,4.1
	c-1.8,0-3.3-1.4-3.3-3.2c0-0.1,0-0.2,0-0.3c0-1.4,0.8-2.6,2.1-3.1c0.6-0.2,0.6-0.7,0.3-1c-1.2-1-2.7-1.4-4.2-1.3
	c-4.4,0-7.3,4-7.3,10.9c0,6.7,3.1,10.6,7.3,10.6c2.7,0,5-1.5,7.3-4.1l1.5,1.3c-2.2,3.6-6.2,5.8-10.4,5.9
	C313.6,307.1,308.3,302,308.3,293.7z"/>
<path d="M332.8,303.7h0.7c2.2,0,2.7-0.5,2.7-2.8v-26.9c0-2.2-0.5-2.8-2.7-2.8h-1.1v-2.4l8.6-1v26.2l6.7-7.8c0.9-1,1.1-1.5,1.1-2.1
	c0-0.5-0.5-1-2.5-1.1v-2.2h11.7v2.3c-3.8,0.3-4.8,0.8-6.9,3.1l-3.8,4.1l7,10.9c1.3,1.8,2.1,2.3,4.9,2.5v2.5h-11.7v-2.5
	c1.6,0,2.1-0.4,2.1-0.9s-0.1-0.8-0.7-1.6l-4.6-7.5l-3.3,3.6v3.6c0,2.2,0.5,2.8,2.7,2.8h0.8v2.5h-11.7L332.8,303.7z"/>
<path d="M361.1,293.7c0-8.2,5.8-13.7,11.6-13.7c5.5,0,10.4,4.5,10.4,12.1c0,0.7-0.1,1.5-0.2,2.2h-16.5c0.3,5.9,2.8,9.7,7.1,9.7
	c3.1,0,5.5-1.5,7.8-4.6l1.7,1.1c-2.6,4-5.9,6.5-10.7,6.5C365.8,307.1,361.1,301.9,361.1,293.7z M375.3,291.8c1.9,0,2.5-0.4,2.5-1.9
	c0-4.7-2-7.5-5.2-7.5s-5.8,3.2-6.1,9.5L375.3,291.8z"/>
<path d="M386.8,303.7h0.9c2.2,0,2.7-0.5,2.7-2.8v-14.8c0-2.2-0.4-2.8-2.7-2.8h-0.9V281l8.5-0.7l-0.7,7h0.3c1.8-3.9,4.7-6.9,8.6-6.9
	c4.6,0,7.1,2.7,7.1,8.5v12.1c0,2.2,0.4,2.8,2.7,2.8h0.5v2.5H402v-2.5h1.1c2.3,0,2.7-0.5,2.7-2.8V289c0-3.5-1.1-5.2-3.8-5.2
	c-3.8,0-6.8,5.6-6.8,10.5v6.6c0,2.2,0.5,2.8,2.7,2.8h1v2.5h-12.3V303.7z"/>
<path d="M417.5,296.2h1.5c1.3,4.4,4.7,8.2,9.6,8.2c3.2,0,5-1.5,5-3.9s-1.6-3.4-7-4.8c-5.5-1.4-8.8-3.2-8.8-8.3
	c0-4.4,3.2-7.2,7.9-7.2c3.4,0,5,1.5,6.3,1.5c0.8,0,1.3-0.4,1.9-1.5h1.6v9.3h-1.6c-1-3.1-3.9-6.9-8.5-6.9c-2.5,0-4.1,1.3-4.1,3.5
	s2,3.2,6.5,4.5c6.6,1.7,9.4,3.8,9.4,8.5s-3.6,7.8-8.8,7.8c-3.8,0-6.5-2.1-7.5-2.1c-0.8,0-1.3,0.7-1.9,2.1h-1.6L417.5,296.2z"/>
<path d="M441.4,300.8c0-4.8,4.6-7.8,15.4-10.1v-0.8c0-5.2-1.6-7.3-5.4-7.3c-1.5-0.1-2.9,0.3-4.1,1.1c-0.2,0.3-0.3,0.7,0.1,0.9
	c1.5,0.8,2.1,2.6,1.4,4.1c-0.5,1.1-1.7,1.8-2.9,1.7c-1.8,0.1-3.3-1.3-3.3-3.1c0-0.1,0-0.3,0-0.4c0-3.8,4-6.5,9.8-6.5s9.4,3,9.4,9.3
	v12.3c0,1.4,0.5,2,1.3,2c0.7-0.1,1.4-0.5,1.8-1l1.1,1.3c-1.5,1.7-2.7,2.5-4.6,2.5c-2.3,0-4.1-1.8-4.1-5.2h-0.3
	c-1.7,3.3-5,5.3-8.7,5.4C444.4,306.8,441.4,304.8,441.4,300.8z M456.7,295.8v-3c-8.2,1.6-10.1,4.1-10.1,7.1c0,2.1,1.1,3.7,3.3,3.7
	C453.2,303.6,456.7,300.8,456.7,295.8z"/>
<path d="M467.4,293.7c-0.3-7.2,5.4-13.3,12.6-13.6c0,0,0.1,0,0.1,0c4.9,0,8.8,3.1,8.8,7.1c0,2.7-1.6,4.1-3.6,4.1
	c-1.8,0-3.3-1.4-3.3-3.2c0-0.1,0-0.2,0-0.3c0-1.4,0.8-2.6,2.1-3.1c0.6-0.2,0.6-0.7,0.3-1c-1.2-1-2.7-1.4-4.2-1.3
	c-4.4,0-7.3,4-7.3,10.9c0,6.7,3.1,10.6,7.3,10.6c2.7,0,5-1.5,7.3-4.1l1.5,1.3c-2.2,3.6-6.2,5.8-10.4,5.9
	C472.6,307.1,467.4,302,467.4,293.7z"/>
<path d="M491.5,303.7h0.7c2.2,0,2.7-0.5,2.7-2.8v-26.9c0-2.2-0.5-2.8-2.7-2.8h-1.1v-2.4l8.6-1v26.2l6.8-7.8c0.9-1,1.1-1.5,1.1-2.1
	c0-0.5-0.5-1-2.5-1.1v-2.2h11.7v2.3c-3.8,0.3-4.8,0.8-6.9,3.1l-3.8,4.1l7,10.9c1.3,1.8,2.1,2.3,4.9,2.5v2.5h-11.7v-2.5
	c1.6,0,2.1-0.4,2.1-0.9s-0.1-0.8-0.7-1.6l-4.6-7.5l-3.3,3.6v3.6c0,2.2,0.5,2.8,2.7,2.8h0.8v2.5h-11.7L491.5,303.7z"/>
<path d="M249.8,334h-0.3V356c0,5,1.1,6.2,5.2,6.2h0.7v2.5h-14.9v-2.5h1.1c3.5,0,4.7-1.3,4.7-6.2v-23.5c0-2.3-0.9-2.8-3.2-2.8H241
	v-2.5h12.5l10.5,29.2l10.4-29.2h12.2v2.5h-2.1c-2.3,0-3.3,0.5-3.3,2.8v26.9c0,2.3,1,2.8,3.3,2.8h2.1v2.5h-16.5v-2.5h2.2
	c2.3,0,3.2-0.5,3.2-2.8V334h-0.3l-11.3,31.2h-2.5L249.8,334z"/>
<path d="M289,352.2c0-8.2,5.8-13.7,11.6-13.7c5.5,0,10.4,4.5,10.4,12.1c0,0.7,0,1.5-0.1,2.2h-16.6c0.3,5.9,2.8,9.7,7.1,9.7
	c3.1,0,5.5-1.5,7.8-4.6l1.7,1.1c-2.6,4-5.9,6.5-10.7,6.5C293.7,365.5,289,360.3,289,352.2z M303.2,350.3c1.9,0,2.5-0.4,2.5-1.9
	c0-4.7-2-7.5-5.2-7.5c-3.2,0-5.8,3.2-6.1,9.5L303.2,350.3z"/>
<path d="M314.8,362.2h0.9c2.2,0,2.7-0.5,2.7-2.8v-14.8c0-2.2-0.4-2.8-2.7-2.8h-0.9v-2.4l8.5-0.7l-0.8,8.7h0.4
	c2.1-5.4,4.9-8.8,8.2-8.8c3.1,0,4.9,1.9,4.9,4.7c0,2.5-1.5,4.1-3.3,4.1c-1.5,0.1-2.8-1-2.9-2.5c0-0.1,0-0.1,0-0.2
	c0-1.1,0.5-2.1,1.4-2.7c0.4-0.3,0.3-0.9-0.3-0.9c-3.5,0-7.5,7.9-7.5,13.6v4.6c0,2.2,0.5,2.8,2.7,2.8h1.8v2.5h-12.9V362.2z"/>
<path d="M339.4,362.2h0.8c2.1,0,2.5-0.5,2.5-2.8v-14.7c0-2.3-0.5-2.8-2.5-2.8H339v-2.4l8.8-0.7v20.6c0,2.2,0.4,2.8,2.5,2.8h0.7v2.5
	h-11.5L339.4,362.2z M341.1,330.2c0-2,1.7-3.5,3.7-3.5c2,0,3.5,1.7,3.5,3.7c0,2-1.7,3.5-3.6,3.5
	C342.7,333.8,341.1,332.2,341.1,330.2z"/>
<path d="M373.2,359.2h-0.3c-1.9,3.6-4.6,6-8.3,6c-5.4,0-10.3-5.4-10.3-13.1c0-7.8,5-13.2,10.5-13.2c3.7,0,6.4,2.2,8.1,5.4h0.3
	l-0.5-5.4v-6.4c0-2.2-0.5-2.7-2.7-2.7H368v-2.5l9.5-0.9V359c0,2.3,0.5,2.8,2.7,2.8h0.9v2.5l-8.5,1L373.2,359.2z M372.7,351.9
	c0-5.5-3.4-10.2-7.1-10.2s-5.7,3.7-5.7,10.3s2.2,10.4,5.7,10.4C369.1,362.4,372.7,357.5,372.7,351.9z"/>
<path d="M385.4,362.2h0.8c2.1,0,2.5-0.5,2.5-2.8v-14.7c0-2.3-0.5-2.8-2.5-2.8h-1.3v-2.4l8.8-0.7v20.6c0,2.2,0.4,2.8,2.5,2.8h0.6v2.5
	h-11.5L385.4,362.2z M387,330.2c0-2,1.7-3.5,3.7-3.5c2,0,3.5,1.7,3.5,3.7c0,2-1.7,3.5-3.7,3.5c0,0,0,0,0,0
	C388.6,333.8,387.1,332.2,387,330.2z"/>
<path d="M400.8,359.2c0-4.8,4.6-7.8,15.4-10.1v-0.8c0-5.2-1.6-7.3-5.4-7.3c-1.5-0.1-2.9,0.3-4.1,1.1c-0.2,0.3-0.3,0.7,0.1,0.9
	c1.5,0.8,2.1,2.6,1.4,4.1c-0.5,1.1-1.7,1.8-2.9,1.7c-1.8,0.1-3.3-1.3-3.3-3.1c0-0.1,0-0.3,0-0.4c0-3.8,4-6.5,9.8-6.5
	c5.7,0,9.4,3,9.4,9.3v12.3c0,1.4,0.5,2,1.3,2c0.7-0.1,1.4-0.5,1.8-1l1.1,1.3c-1.5,1.7-2.7,2.5-4.6,2.5c-2.3,0-4.1-1.8-4.1-5.2h-0.3
	c-1.7,3.3-5,5.3-8.7,5.4C403.8,365.3,400.8,363.2,400.8,359.2z M416.2,354.2v-3c-8.2,1.6-10,4.1-10,7.1c0,2.1,1.1,3.7,3.3,3.7
	C412.6,362,416.2,359.2,416.2,354.2z"/>
<path d="M427.5,362.2h0.9c2.2,0,2.7-0.5,2.7-2.8v-14.8c0-2.2-0.4-2.8-2.7-2.8h-0.9v-2.4l8.5-0.7l-0.7,7h0.4c1.8-3.9,4.7-6.9,8.6-6.9
	c4.6,0,7.1,2.7,7.1,8.5v12.1c0,2.2,0.4,2.8,2.7,2.8h0.5v2.5h-11.9v-2.5h1c2.3,0,2.7-0.5,2.7-2.8v-11.9c0-3.5-1.1-5.2-3.8-5.2
	c-3.8,0-6.8,5.6-6.8,10.5v6.6c0,2.2,0.5,2.8,2.7,2.8h1v2.5h-12.2L427.5,362.2z"/>
<path d="M468.1,362.3h1.9c2.4,0,3.4-0.5,3.9-2.8l6.7-26.9c0.5-2.2-0.2-2.8-2.5-2.8h-1.9l0.7-2.5h16l-0.6,2.5h-2.1
	c-2.4,0-3.3,0.5-3.9,2.8l-3,11.7h15.5l2.9-11.7c0.6-2.3-0.1-2.8-2.5-2.8H497l0.7-2.5h16l-0.7,2.5h-1.9c-2.3,0-3.4,0.5-3.9,2.8
	l-6.7,26.9c-0.5,2.2,0.2,2.8,2.6,2.8h1.9l-0.7,2.5h-16l0.6-2.5h2.1c2.3,0,3.3-0.5,3.9-2.8l3-12.1h-15.5l-3.1,12.1
	c-0.5,2.2,0.3,2.8,2.6,2.8h2l-0.7,2.5h-16L468.1,362.3z"/>
<path d="M514.7,356c0,3.9,1.7,6.4,4.1,6.4c3.1,0,5.2-1.4,8-4.3l1.5,1.3c-3.4,4-6.4,6.2-10.9,6.2c-4.7,0-8.3-3.4-8.3-9.9
	c0-7,6.9-17,15.1-17c3.8,0,6.3,2.1,6.3,5.5c0,4.8-4.6,9-15.9,11L514.7,356z M525.2,344.1c0-2-1-3-2.2-3c-2.8,0-7,5.2-8.1,11.8
	C523.3,351.1,525.2,348.4,525.2,344.1z"/>
<path d="M533,356.5c0-9.5,7-17.6,12.8-17.6c3.8,0,5.2,1.9,6.3,5.5h0.2c1.4-1.7,2.5-3.5,3.3-5.5h2.5l-5.6,18.6
	c-0.4,1.1-0.7,2.2-0.8,3.4c0,0.8,0.3,1.1,0.8,1.1c1,0,2.1-1.4,4.5-5l1.6,1.1c-2.5,4.4-4.7,6.9-7.6,6.9c-2.9,0-3.5-1.5-3.5-3.1
	c0-0.8,0.1-1.6,0.4-2.4h-0.3c-2.2,3.2-4.5,5.7-8,5.7C535.7,365.3,533,362.3,533,356.5z M549.9,347.2c0-3.3-1.1-5.3-3.4-5.3
	c-4.2,0-8,6.9-8,15.8c0,3.1,0.8,4.5,2.5,4.5C544.5,362.2,549.9,354.7,549.9,347.2z"/>
<path d="M561.9,361.2c0.1-1.3,0.3-2.5,0.8-3.7l7.3-24.7c0.2-0.6,0.3-1.3,0.4-2c0-0.8-0.6-1-2.1-1h-1.8l0.7-2.5l9.8-0.9l-9,30.8
	c-0.4,1.2-0.7,2.4-0.8,3.6c0,0.8,0.1,1.1,0.7,1.1c0.9,0,2-1.3,4.3-4.8l1.7,1.1c-2.7,4.4-4.7,6.8-7.8,6.8c-2,0.2-3.7-1.2-4-3.1
	C561.9,361.6,561.9,361.4,561.9,361.2z"/>
<path d="M578.3,360.5c0-1.1,0.2-2.3,0.5-3.4l4.4-15.1h-3.6l0.5-2.1c4.5-1,6.3-2.3,9.3-10.1h2.6l-2.8,9.5h6.8l-0.7,2.6h-7l-4.5,15.5
	c-0.2,0.8-0.4,1.6-0.4,2.3c0,1.3,0.5,2.3,1.9,2.3c2,0,3.4-1.6,6-6.2l1.7,1.1c-2.9,5.7-5.5,8.4-9.6,8.4c-2.6,0.2-4.8-1.6-5-4.2
	C578.3,361.1,578.3,360.8,578.3,360.5z"/>
<path d="M610,361.2c0.1-1.5,0.4-2.9,0.9-4.3l3.2-8.2c0.6-1.5,1.1-3.2,1.3-4.8c0-0.9-0.4-1.5-1.4-1.5c-3.6,0-8.8,8.2-11,15.6
	l-2.1,6.9h-5l9.3-31.9c0.2-0.6,0.3-1.3,0.4-2c0-0.8-0.6-1-2.1-1h-2l0.7-2.5l10.1-0.9l-4.2,13.5l-2.8,7.5l0.4,0.2
	c3.1-5.2,6.3-8.8,10.3-8.8c3.1,0,4.6,1.7,4.6,4.6c-0.1,1.8-0.5,3.7-1.3,5.4l-3.3,8.5c-0.4,1.1-0.8,2.3-1,3.4c0,0.8,0.3,1.3,0.8,1.3
	c0.9,0,2-1.3,4.4-4.9l1.6,1.1c-2.7,4.4-4.7,6.8-7.8,6.8c-2,0.2-3.7-1.2-3.9-3.2C610,361.6,610,361.4,610,361.2z"/>
</svg>
